<svg width="20" height="20" viewBox="0 0 20 20" fill="none" xmlns="http://www.w3.org/2000/svg">
<path d="M9.53125 3.28122L9.96484 3.74997L10.4336 3.28201C11.7422 2.00661 13.5547 1.42615 15.3359 1.72263C18.0273 2.17107 20 4.49997 20 7.23044V7.457C20 9.0781 19.3281 10.6289 18.1406 11.7343L11.082 18.3242C10.7891 18.5976 10.4023 18.75 10 18.75C9.59766 18.75 9.21094 18.5976 8.91797 18.3242L1.85898 11.7343C0.673047 10.6289 0 9.0781 0 7.457V7.23044C0 4.49997 1.97344 2.17107 4.66406 1.72263C6.41016 1.42615 8.25781 2.00661 9.53125 3.28122Z" fill="#5076FD"/>
</svg>
