<svg width="20" height="20" viewBox="0 0 20 20" fill="none" xmlns="http://www.w3.org/2000/svg">
<path d="M9.53125 3.28122L9.96484 3.74997L10.4336 3.28201C11.7422 2.00661 13.5547 1.42615 15.3359 1.72263C18.0273 2.17107 20 4.49997 20 7.23044V7.457C20 9.0781 19.3281 10.6289 18.1406 11.7343L11.082 18.3242C10.7891 18.5976 10.4023 18.75 10 18.75C9.59766 18.75 9.21094 18.5976 8.91797 18.3242L1.85898 11.7343C0.673047 10.6289 0 9.0781 0 7.457V7.23044C0 4.49997 1.97344 2.17107 4.66406 1.72263C6.41016 1.42615 8.25781 2.00661 9.53125 3.28122C9.53125 3.28161 9.49609 3.28122 9.53125 3.28122ZM9.96484 6.40232L8.20703 4.57419C7.35938 3.76091 6.15625 3.37497 4.97266 3.57185C3.18555 3.8699 1.875 5.41794 1.875 7.23044V7.457C1.875 8.55857 2.33242 9.61325 3.13828 10.3633L10 16.7695L16.8633 10.3633C17.668 9.61325 18.125 8.55857 18.125 7.457V7.23044C18.125 5.41794 16.8125 3.8699 15.0273 3.57185C13.8438 3.37497 12.6406 3.76091 11.793 4.57419L9.96484 6.40232Z" fill="black"/>
</svg>
