<svg width="528" height="94" viewBox="0 0 528 94" fill="none" xmlns="http://www.w3.org/2000/svg">
<path d="M128.63 70.7C126.063 70.7 123.52 70.4667 121 70C118.526 69.58 116.333 69.02 114.42 68.32C112.506 67.62 111.13 66.92 110.29 66.22V51.59C112.063 52.57 114.046 53.4567 116.24 54.25C118.433 55.0433 120.65 55.6733 122.89 56.14C125.176 56.56 127.346 56.77 129.4 56.77C132.246 56.77 133.67 56.1167 133.67 54.81C133.67 54.1567 133.366 53.62 132.76 53.2C132.2 52.7333 131.196 52.2433 129.75 51.73C128.303 51.2167 126.25 50.5633 123.59 49.77C120.51 48.79 117.873 47.7633 115.68 46.69C113.533 45.6167 111.876 44.24 110.71 42.56C109.59 40.88 109.03 38.64 109.03 35.84C109.03 30.9867 110.966 27.09 114.84 24.15C118.713 21.21 124.383 19.74 131.85 19.74C133.343 19.74 134.93 19.81 136.61 19.95C138.336 20.0433 139.713 20.1833 140.74 20.37L149.35 26.18L145.85 36.82L127.93 32.27C126.063 32.27 125.13 32.9 125.13 34.16C125.13 35.14 125.713 35.9567 126.88 36.61C128.093 37.2167 130.263 38.0567 133.39 39.13C137.543 40.53 140.833 41.9767 143.26 43.47C145.733 44.9167 147.506 46.5733 148.58 48.44C149.653 50.3067 150.19 52.5233 150.19 55.09C150.19 59.7567 148.393 63.5367 144.8 66.43C141.206 69.2767 135.816 70.7 128.63 70.7ZM173.136 70.7C167.443 70.7 162.916 69.3467 159.556 66.64C156.196 63.9333 154.516 59.5467 154.516 53.48C154.516 47.3667 156.196 42.98 159.556 40.32C162.916 37.6133 167.443 36.26 173.136 36.26C179.016 36.26 183.566 37.6133 186.786 40.32C190.006 42.98 191.616 47.3667 191.616 53.48C191.616 59.5467 190.006 63.9333 186.786 66.64C183.566 69.3467 179.016 70.7 173.136 70.7ZM173.136 59.5C174.023 59.5 174.746 59.15 175.306 58.45C175.866 57.7033 176.146 56.0467 176.146 53.48C176.146 50.8667 175.866 49.21 175.306 48.51C174.793 47.81 174.069 47.46 173.136 47.46C172.249 47.46 171.503 47.81 170.896 48.51C170.289 49.21 169.986 50.8667 169.986 53.48C169.986 56.0467 170.289 57.7033 170.896 58.45C171.503 59.15 172.249 59.5 173.136 59.5ZM212.988 70.7C209.535 70.7 206.385 70.1633 203.538 69.09C200.738 68.0167 198.521 66.22 196.888 63.7C195.255 61.18 194.438 57.7733 194.438 53.48C194.438 50.1667 194.998 47.4133 196.118 45.22C197.238 43.0267 198.708 41.2767 200.528 39.97C202.348 38.6167 204.331 37.66 206.478 37.1C208.671 36.54 210.841 36.26 212.988 36.26C215.555 36.26 217.725 36.3767 219.498 36.61C221.271 36.7967 222.531 36.9367 223.278 37.03L228.738 43.19L222.438 52.22L214.388 48.16C213.361 48.16 212.451 48.5333 211.658 49.28C210.865 50.0267 210.468 51.4267 210.468 53.48C210.468 55.6267 210.935 57.05 211.868 57.75C212.848 58.45 214.155 58.8 215.788 58.8C218.681 58.8 221.178 58.4267 223.278 57.68C225.378 56.8867 226.941 56.2567 227.968 55.79V67.97C226.195 68.8567 223.955 69.5333 221.248 70C218.588 70.4667 215.835 70.7 212.988 70.7ZM242.934 34.93L232.574 25.97L242.934 17.08L253.294 25.97L242.934 34.93ZM235.164 70V46.83L233.694 41.23L235.094 36.96H250.564V70H235.164ZM265.863 70.7C262.736 70.7 260.193 69.9767 258.233 68.53C256.319 67.0367 255.363 64.4467 255.363 60.76C255.363 57.3533 256.483 54.7867 258.723 53.06C261.009 51.2867 264.089 50.4 267.963 50.4C270.063 50.4 271.743 50.61 273.003 51.03C274.263 51.4033 275.219 51.7767 275.873 52.15L276.363 51.8C276.363 50.3533 276.106 49.28 275.593 48.58C275.079 47.8333 273.843 47.46 271.883 47.46C270.156 47.46 268.383 47.6467 266.563 48.02C264.789 48.3467 263.109 48.79 261.523 49.35C259.936 49.8633 258.583 50.4233 257.463 51.03V38.43C258.209 38.1967 259.399 37.9167 261.033 37.59C262.666 37.2633 264.626 36.9833 266.913 36.75C269.199 36.47 271.649 36.33 274.263 36.33C278.649 36.33 282.126 36.8667 284.693 37.94C287.259 38.9667 289.079 40.4833 290.153 42.49C291.273 44.45 291.833 46.8067 291.833 49.56V58.87L293.233 65.94L291.833 70.07H277.063V66.64L276.363 66.29C275.616 67.3633 274.333 68.3667 272.513 69.3C270.739 70.2333 268.523 70.7 265.863 70.7ZM273.773 61.53C274.473 61.53 275.056 61.4133 275.523 61.18C275.989 60.9467 276.269 60.8067 276.363 60.76V59.22C276.363 58.52 276.153 57.9133 275.733 57.4C275.313 56.8867 274.683 56.63 273.843 56.63C273.096 56.63 272.396 56.84 271.743 57.26C271.089 57.6333 270.763 58.31 270.763 59.29C270.763 60.7833 271.766 61.53 273.773 61.53ZM298.743 70V31.64L297.273 24.64L298.743 20.44H314.143V70H298.743Z" fill="#1DCB2B"/>
<path d="M322.574 70V31.71L321.174 24.64L322.574 20.44H347.774C351.554 20.44 354.797 21.0467 357.504 22.26C360.21 23.4733 362.287 25.4333 363.734 28.14C365.18 30.8 365.904 34.3233 365.904 38.71C365.904 45.29 364.13 50.0267 360.584 52.92C357.084 55.7667 352.114 57.19 345.674 57.19H337.974V58.73L338.674 65.73L337.974 70H322.574ZM337.974 44.1H342.034C343.667 44.1 345.067 44.03 346.234 43.89C347.447 43.75 348.38 43.33 349.034 42.63C349.687 41.8833 350.014 40.6933 350.014 39.06C350.014 37.3333 349.664 36.0967 348.964 35.35C348.264 34.6033 347.284 34.16 346.024 34.02C344.81 33.8333 343.387 33.74 341.754 33.74H337.274L337.974 44.1ZM369.152 70V31.64L367.752 24.64L369.152 20.44H384.552V31.78L383.852 39.55L384.552 39.9C384.785 39.6667 385.299 39.27 386.092 38.71C386.885 38.1033 387.935 37.5433 389.242 37.03C390.549 36.47 392.019 36.19 393.652 36.19C397.852 36.19 400.769 37.38 402.402 39.76C404.035 42.14 404.852 45.4767 404.852 49.77V58.87L406.322 65.73L404.852 70H389.382V52.29C389.382 50.7967 389.079 49.7467 388.472 49.14C387.865 48.4867 386.792 48.16 385.252 48.16L384.552 48.86V70H369.152ZM428.048 70.7C422.355 70.7 417.828 69.3467 414.468 66.64C411.108 63.9333 409.428 59.5467 409.428 53.48C409.428 47.3667 411.108 42.98 414.468 40.32C417.828 37.6133 422.355 36.26 428.048 36.26C433.928 36.26 438.478 37.6133 441.698 40.32C444.918 42.98 446.528 47.3667 446.528 53.48C446.528 59.5467 444.918 63.9333 441.698 66.64C438.478 69.3467 433.928 70.7 428.048 70.7ZM428.048 59.5C428.935 59.5 429.658 59.15 430.218 58.45C430.778 57.7033 431.058 56.0467 431.058 53.48C431.058 50.8667 430.778 49.21 430.218 48.51C429.705 47.81 428.982 47.46 428.048 47.46C427.162 47.46 426.415 47.81 425.808 48.51C425.202 49.21 424.898 50.8667 424.898 53.48C424.898 56.0467 425.202 57.7033 425.808 58.45C426.415 59.15 427.162 59.5 428.048 59.5ZM466.36 70.7C462.253 70.7 459.243 69.86 457.33 68.18C455.417 66.5 454.46 64.05 454.46 60.83V47.67H448.65V38.92L453.76 35.49L458.73 26.81H469.79V36.96H480.29V48.16H469.79V58.94L480.29 58.87V68.6C480.29 68.6 479.87 68.7167 479.03 68.95C478.19 69.1367 477.07 69.37 475.67 69.65C474.317 69.93 472.823 70.1633 471.19 70.35C469.557 70.5833 467.947 70.7 466.36 70.7ZM502.423 70.7C496.73 70.7 492.203 69.3467 488.843 66.64C485.483 63.9333 483.803 59.5467 483.803 53.48C483.803 47.3667 485.483 42.98 488.843 40.32C492.203 37.6133 496.73 36.26 502.423 36.26C508.303 36.26 512.853 37.6133 516.073 40.32C519.293 42.98 520.903 47.3667 520.903 53.48C520.903 59.5467 519.293 63.9333 516.073 66.64C512.853 69.3467 508.303 70.7 502.423 70.7ZM502.423 59.5C503.31 59.5 504.033 59.15 504.593 58.45C505.153 57.7033 505.433 56.0467 505.433 53.48C505.433 50.8667 505.153 49.21 504.593 48.51C504.08 47.81 503.357 47.46 502.423 47.46C501.537 47.46 500.79 47.81 500.183 48.51C499.577 49.21 499.273 50.8667 499.273 53.48C499.273 56.0467 499.577 57.7033 500.183 58.45C500.79 59.15 501.537 59.5 502.423 59.5Z" fill="#3F3D56"/>
<g clip-path="url(#clip0_13_98)">
<path d="M27.1513 78.883L26.2214 94C26.2214 94 65.5523 62.3025 70.4523 53.0281C75.3522 43.7538 66.1288 20.8121 66.1288 20.8121L45.6644 30.3305L27.1513 78.883Z" fill="#9F616A"/>
<path d="M87.4578 14.4665L93.5107 14.9546C93.5107 14.9546 96.6812 20.8121 86.8813 21.3002L87.4578 14.4665Z" fill="#9F616A"/>
<path d="M87.4578 23.4967L93.5107 23.9849C93.5107 23.9849 96.6812 29.8423 86.8813 30.3304L87.4578 23.4967Z" fill="#9F616A"/>
<path d="M87.4578 33.2592L93.5107 33.7473C93.5107 33.7473 96.6812 39.6048 86.8813 40.0929L87.4578 33.2592Z" fill="#9F616A"/>
<path d="M85.7283 43.0216L91.7812 43.5098C91.7812 43.5098 94.9517 49.3672 85.1519 49.8553L85.7283 43.0216Z" fill="#9F616A"/>
<path d="M90.4045 16.8196H89.9453V6.16603C89.9453 5.35629 89.7569 4.55449 89.391 3.80639C89.025 3.0583 88.4886 2.37856 87.8125 1.80599C87.1363 1.23342 86.3335 0.779235 85.45 0.469363C84.5665 0.159491 83.6196 6.20384e-07 82.6633 0H56.0073C55.051 -1.65431e-06 54.1041 0.159486 53.2206 0.469356C52.3371 0.779226 51.5344 1.23341 50.8582 1.80598C50.182 2.37854 49.6456 3.05828 49.2797 3.80637C48.9137 4.55447 48.7253 5.35627 48.7253 6.166V64.6125C48.7253 65.4223 48.9137 66.2241 49.2796 66.9722C49.6456 67.7203 50.182 68.4 50.8582 68.9726C51.5344 69.5452 52.3371 69.9993 53.2206 70.3092C54.1041 70.6191 55.051 70.7786 56.0073 70.7786H82.6633C84.5946 70.7786 86.4468 70.129 87.8124 68.9726C89.1781 67.8163 89.9453 66.2479 89.9453 64.6126V24.4031H90.4045V16.8196Z" fill="#3F3D56"/>
<path d="M88.395 6.2088V64.5697C88.3951 65.1744 88.2545 65.7732 87.9813 66.3318C87.708 66.8905 87.3075 67.3981 86.8025 67.8257C86.2976 68.2532 85.6981 68.5924 85.0384 68.8238C84.3786 69.0551 83.6715 69.1742 82.9574 69.1741H56.1725C55.4584 69.1741 54.7513 69.055 54.0916 68.8237C53.4318 68.5923 52.8323 68.2531 52.3274 67.8256C51.8225 67.398 51.4219 66.8904 51.1487 66.3318C50.8754 65.7731 50.7348 65.1744 50.7349 64.5697V6.2088C50.7348 5.60414 50.8754 5.0054 51.1487 4.44675C51.4219 3.88811 51.8225 3.38052 52.3274 2.95296C52.8324 2.5254 53.4318 2.18624 54.0916 1.95486C54.7513 1.72348 55.4584 1.6044 56.1725 1.60443H59.4232C59.2631 1.93658 59.202 2.29697 59.2451 2.65384C59.2883 3.01072 59.4345 3.35312 59.6708 3.65089C59.907 3.94866 60.2262 4.19265 60.6001 4.36137C60.974 4.53008 61.3911 4.61835 61.8148 4.61837H77.0863C77.5099 4.61811 77.9269 4.5297 78.3006 4.36092C78.6744 4.19214 78.9934 3.94817 79.2296 3.65047C79.4658 3.35277 79.612 3.01047 79.6553 2.65369C79.6986 2.29691 79.6377 1.93659 79.4779 1.60443H82.9574C83.6715 1.6044 84.3786 1.72348 85.0383 1.95486C85.698 2.18624 86.2975 2.5254 86.8024 2.95296C87.3074 3.38052 87.7079 3.88812 87.9811 4.44676C88.2544 5.0054 88.395 5.60414 88.395 6.2088V6.2088Z" fill="#F1F1F1"/>
<path opacity="0.2" d="M93.4785 14.8805L89.9133 15.9925L89.9776 16.1403L93.5428 15.0283L93.4785 14.8805Z" fill="black"/>
<path opacity="0.2" d="M93.4785 24.0136L89.9133 25.1257L89.9776 25.2735L93.5428 24.1614L93.4785 24.0136Z" fill="black"/>
<path opacity="0.2" d="M93.4785 33.7767L89.9133 34.8887L89.9776 35.0365L93.5428 33.9245L93.4785 33.7767Z" fill="black"/>
<path opacity="0.2" d="M91.6107 43.5426L89.875 44.248L89.9555 44.39L91.6912 43.6845L91.6107 43.5426Z" fill="black"/>
<path d="M56.8625 41.1259L54.696 45.1744L50.7349 52.577V39.4835L56.8625 41.1259Z" fill="#9F616A"/>
<path d="M80.9348 24.5565C80.9348 30.1001 74.8812 29.2616 67.4137 29.2616C59.9462 29.2616 53.8926 30.1001 53.8926 24.5565C53.8926 19.0129 56.8496 9.18652 67.4137 9.18652C78.3417 9.18652 80.9348 19.0129 80.9348 24.5565Z" fill="#2F2E41"/>
<path d="M87.902 43.9839L88.3948 46.5915V64.5697C88.3968 65.3646 88.1538 66.1462 87.69 66.8373L82.7396 59.4882L80.9561 44.0973L80.5117 40.2534L87.2195 40.3731L87.902 43.9839Z" fill="#9F616A"/>
<path d="M88.3948 43.3508C88.1567 42.6958 87.7532 41.5888 87.2901 40.3542C86.4756 38.1796 85.4788 35.605 84.8874 34.3783C83.7586 32.0368 78.0067 32.9753 78.0067 32.9753L58.2998 32.3501C58.2998 32.3501 57.5652 32.2682 54.2606 31.8966C52.8751 31.7407 51.6682 33.3847 50.7346 35.3483V41.5289L55.3261 41.825C54.9568 42.9157 54.7451 44.0404 54.6957 45.1743C54.6436 46.7254 54.9672 48.4591 56.3638 49.5346C59.3746 51.8589 60.3435 62.3211 60.3435 62.3211L58.2254 69.1741H82.9571C83.6712 69.1742 84.3784 69.0551 85.0381 68.8238C85.6979 68.5924 86.2974 68.2533 86.8023 67.8257C87.3073 67.3981 87.7078 66.8905 87.9811 66.3318C88.2543 65.7732 88.3949 65.1744 88.3948 64.5697V62.0313C86.8345 59.8929 85.5532 58.8174 85.5532 58.8174L81.1291 44.0831L87.902 43.9839L88.3948 43.976V43.3508Z" fill="#2F2E41"/>
<path d="M74.4423 26.4352C77.9954 23.4265 77.9955 18.5485 74.4423 15.5399C70.8891 12.5312 65.1283 12.5312 61.5752 15.5399C58.022 18.5486 58.022 23.4265 61.5752 26.4352C65.1283 29.4439 70.8891 29.4439 74.4423 26.4352Z" fill="#9F616A"/>
<path d="M56.8562 20.7924H60.4548L62.0424 17.0284L62.3598 20.7924H64.0798L65.0059 18.5967L65.1911 20.7924H77.9714C77.9714 18.6295 76.9566 16.5551 75.1504 15.0256C73.3441 13.4962 70.8943 12.6369 68.3399 12.6369H66.4877C63.9332 12.6369 61.4834 13.4962 59.6772 15.0256C57.8709 16.5551 56.8562 18.6295 56.8562 20.7924Z" fill="#2F2E41"/>
<path d="M0 86.7565L32.2615 55.5908L33.4145 35.5778L45.5202 18.4935L48.9789 11.1717C48.9789 11.1717 57.0494 11.9038 50.4201 25.8153L47.6819 33.2592C50.1502 37.7608 49.5692 42.6641 49.5692 47.6272V64.6848C49.5692 68.7013 28.8246 90.5793 26.1934 93.9213L0 86.7565Z" fill="#9F616A"/>
<path opacity="0.2" d="M48.0301 19.9412L45.6233 18.9397L45.7053 18.7983L47.9289 19.7237L51.2856 12.2718L51.4593 12.328L48.0301 19.9412Z" fill="black"/>
<path d="M69.8204 66.3475C72.5935 66.3475 74.8415 64.444 74.8415 62.0959C74.8415 59.7478 72.5935 57.8442 69.8204 57.8442C67.0473 57.8442 64.7993 59.7478 64.7993 62.0959C64.7993 64.444 67.0473 66.3475 69.8204 66.3475Z" fill="#6C63FF"/>
<path d="M58.1046 65.1206C59.9748 65.1206 61.4908 63.8369 61.4908 62.2533C61.4908 60.6698 59.9748 59.3861 58.1046 59.3861C56.2345 59.3861 54.7185 60.6698 54.7185 62.2533C54.7185 63.8369 56.2345 65.1206 58.1046 65.1206Z" fill="white"/>
<path d="M58.1047 65.2452C57.4058 65.2452 56.7227 65.0698 56.1416 64.741C55.5606 64.4123 55.1077 63.945 54.8402 63.3983C54.5728 62.8516 54.5028 62.25 54.6392 61.6697C54.7755 61.0893 55.112 60.5562 55.6062 60.1378C56.1003 59.7193 56.7299 59.4344 57.4153 59.3189C58.1007 59.2035 58.8112 59.2627 59.4568 59.4892C60.1025 59.7156 60.6543 60.0991 61.0425 60.5911C61.4308 61.0832 61.638 61.6616 61.638 62.2533C61.637 63.0466 61.2644 63.807 60.602 64.3679C59.9395 64.9288 59.0414 65.2443 58.1047 65.2452ZM58.1047 59.5108C57.4641 59.5108 56.8379 59.6716 56.3052 59.973C55.7726 60.2743 55.3574 60.7027 55.1123 61.2038C54.8671 61.7049 54.803 62.2564 54.928 62.7884C55.0529 63.3204 55.3614 63.8091 55.8144 64.1926C56.2674 64.5762 56.8445 64.8374 57.4728 64.9432C58.1011 65.049 58.7523 64.9947 59.3441 64.7872C59.936 64.5796 60.4418 64.228 60.7977 63.777C61.1536 63.326 61.3436 62.7958 61.3436 62.2533C61.3426 61.5262 61.0011 60.8291 60.3939 60.315C59.7866 59.8008 58.9634 59.5116 58.1047 59.5108V59.5108Z" fill="#CBCBCB"/>
<path d="M58.8305 63.2506H55.5304C55.5263 63.2507 55.5221 63.2504 55.5181 63.2498L57.0789 60.9606C57.0884 60.9463 57.1023 60.9345 57.119 60.9262C57.1357 60.9179 57.1547 60.9136 57.174 60.9136C57.1934 60.9136 57.2124 60.9179 57.2291 60.9262C57.2458 60.9345 57.2596 60.9463 57.2692 60.9606L58.3166 62.4968L58.3668 62.5703L58.8305 63.2506Z" fill="#E5E5E5"/>
<path d="M60.6678 63.2506H57.8135L58.3666 62.5704L58.4064 62.5214L59.1271 61.6348C59.1399 61.6213 59.1558 61.6102 59.174 61.6022C59.1922 61.5942 59.2121 61.5895 59.2325 61.5885C59.253 61.5874 59.2734 61.5901 59.2926 61.5962C59.3118 61.6023 59.3292 61.6117 59.3437 61.6239C59.3475 61.6274 59.3509 61.631 59.3541 61.6348L60.6678 63.2506Z" fill="#E5E5E5"/>
<path d="M81.3505 65.1206C83.2206 65.1206 84.7366 63.8369 84.7366 62.2533C84.7366 60.6698 83.2206 59.3861 81.3505 59.3861C79.4804 59.3861 77.9644 60.6698 77.9644 62.2533C77.9644 63.8369 79.4804 65.1206 81.3505 65.1206Z" fill="white"/>
<path d="M81.3505 65.2452C80.6517 65.2452 79.9685 65.0698 79.3875 64.741C78.8064 64.4123 78.3535 63.945 78.0861 63.3983C77.8187 62.8516 77.7487 62.25 77.885 61.6697C78.0214 61.0893 78.3579 60.5562 78.852 60.1378C79.3462 59.7193 79.9758 59.4344 80.6612 59.3189C81.3466 59.2035 82.057 59.2627 82.7027 59.4892C83.3483 59.7156 83.9001 60.0991 84.2884 60.5911C84.6766 61.0832 84.8839 61.6616 84.8839 62.2533C84.8828 63.0466 84.5102 63.807 83.8478 64.3679C83.1854 64.9288 82.2873 65.2443 81.3505 65.2452V65.2452ZM81.3505 59.5108C80.7099 59.5108 80.0837 59.6716 79.5511 59.973C79.0184 60.2743 78.6033 60.7027 78.3581 61.2038C78.113 61.7049 78.0488 62.2564 78.1738 62.7884C78.2988 63.3204 78.6073 63.8091 79.0602 64.1926C79.5132 64.5762 80.0903 64.8374 80.7186 64.9432C81.3469 65.049 81.9982 64.9947 82.59 64.7872C83.1818 64.5796 83.6877 64.228 84.0436 63.777C84.3995 63.326 84.5894 62.7958 84.5894 62.2533C84.5885 61.5262 84.2469 60.8291 83.6397 60.315C83.0325 59.8008 82.2092 59.5116 81.3505 59.5108V59.5108Z" fill="#CBCBCB"/>
<path d="M82.7491 61.9486L82.639 62.0418V61.3668C82.639 61.3306 82.622 61.2959 82.5918 61.2704C82.5616 61.2448 82.5207 61.2304 82.4779 61.2304H80.0618C80.0406 61.2303 80.0196 61.2338 80 61.2407C79.9804 61.2475 79.9625 61.2575 79.9475 61.2702C79.9325 61.2829 79.9206 61.2979 79.9125 61.3145C79.9043 61.3311 79.9001 61.3488 79.9001 61.3668C79.9001 61.3848 79.9043 61.4025 79.9125 61.4191C79.9206 61.4357 79.9325 61.4507 79.9475 61.4634C79.9625 61.4761 79.9804 61.4861 80 61.4929C80.0196 61.4998 80.0406 61.5033 80.0618 61.5032H82.3169V62.0418L82.2068 61.9486C82.1843 61.9295 82.1556 61.9165 82.1243 61.9112C82.0931 61.906 82.0607 61.9087 82.0313 61.919C82.0018 61.9293 81.9767 61.9468 81.9589 61.9692C81.9412 61.9916 81.9318 62.018 81.9318 62.045V62.0518C81.9318 62.0879 81.9488 62.1226 81.979 62.1482L82.364 62.4743C82.379 62.4869 82.3968 62.497 82.4163 62.5039C82.4358 62.5107 82.4568 62.5142 82.4779 62.5142C82.4991 62.5142 82.52 62.5107 82.5396 62.5039C82.5591 62.497 82.5769 62.4869 82.5918 62.4743L82.9769 62.1482C83.0071 62.1226 83.0241 62.0879 83.0241 62.0518V62.045C83.0241 62.018 83.0147 61.9916 82.997 61.9692C82.9793 61.9468 82.9541 61.9293 82.9247 61.919C82.8952 61.9087 82.8628 61.906 82.8316 61.9112C82.8004 61.9165 82.7716 61.9295 82.7491 61.9486V61.9486Z" fill="#E5E5E5"/>
<path d="M82.6391 63.0035H80.384V62.4649L80.4941 62.5581C80.5166 62.5772 80.5453 62.5902 80.5766 62.5955C80.6078 62.6007 80.6402 62.598 80.6696 62.5877C80.6991 62.5774 80.7242 62.5599 80.7419 62.5375C80.7596 62.5151 80.7691 62.4887 80.7691 62.4617V62.4549C80.7691 62.4188 80.7521 62.3841 80.7219 62.3585L80.3368 62.0324C80.3218 62.0198 80.3041 62.0097 80.2845 62.0029C80.265 61.996 80.2441 61.9925 80.2229 61.9925C80.2018 61.9925 80.1808 61.996 80.1613 62.0029C80.1417 62.0097 80.124 62.0198 80.109 62.0324L79.7239 62.3585C79.6937 62.3841 79.6768 62.4188 79.6768 62.455V62.4617C79.6768 62.4887 79.6862 62.5151 79.7039 62.5375C79.7216 62.5599 79.7468 62.5774 79.7762 62.5877C79.8057 62.5981 79.8381 62.6008 79.8693 62.5955C79.9006 62.5902 79.9293 62.5772 79.9518 62.5581L80.0618 62.4649V63.1399C80.0618 63.1761 80.0788 63.2108 80.109 63.2364C80.1392 63.2619 80.1802 63.2763 80.2229 63.2763H82.6391C82.6603 63.2764 82.6813 63.2729 82.7009 63.2661C82.7205 63.2592 82.7383 63.2492 82.7533 63.2365C82.7684 63.2239 82.7803 63.2088 82.7884 63.1922C82.7965 63.1756 82.8007 63.1579 82.8007 63.1399C82.8007 63.122 82.7965 63.1042 82.7884 63.0876C82.7803 63.071 82.7684 63.056 82.7533 63.0433C82.7383 63.0306 82.7205 63.0206 82.7009 63.0138C82.6813 63.0069 82.6603 63.0035 82.6391 63.0035V63.0035Z" fill="#E5E5E5"/>
<path d="M61.0737 7.17542H52.7644V7.49035H61.0737V7.17542Z" fill="white"/>
<path d="M73.7195 7.17542H65.4102V7.49035H73.7195V7.17542Z" fill="white"/>
<path d="M86.3652 7.17542H78.0559V7.49035H86.3652V7.17542Z" fill="white"/>
<path d="M61.0737 55.3607H52.7644V55.6757H61.0737V55.3607Z" fill="white"/>
<path d="M73.7195 55.3607H65.4102V55.6757H73.7195V55.3607Z" fill="white"/>
<path d="M86.3652 55.3607H78.0559V55.6757H86.3652V55.3607Z" fill="white"/>
</g>
<defs>
<clipPath id="clip0_13_98">
<rect width="94" height="94" fill="white"/>
</clipPath>
</defs>
</svg>
